<mxfile host="65bd71144e">
    <diagram id="u0bUvYZGX3SuIakVyn6Y" name="network-resource">
        <mxGraphModel dx="1759" dy="1821" grid="1" gridSize="10" guides="1" tooltips="1" connect="1" arrows="1" fold="1" page="1" pageScale="1" pageWidth="827" pageHeight="1169" math="0" shadow="0">
            <root>
                <mxCell id="0"/>
                <mxCell id="1" parent="0"/>
                <mxCell id="37" value="" style="rounded=0;whiteSpace=wrap;html=1;fontSize=9;fillColor=#FFFFFF;" parent="1" vertex="1">
                    <mxGeometry x="-10" y="-130.15" width="840" height="810.15" as="geometry"/>
                </mxCell>
                <mxCell id="10" value="AWS Cloud" style="sketch=0;outlineConnect=0;gradientColor=none;html=1;whiteSpace=wrap;fontSize=12;fontStyle=0;shape=mxgraph.aws4.group;grIcon=mxgraph.aws4.group_aws_cloud;strokeColor=#858B94;fillColor=none;verticalAlign=top;align=left;spacingLeft=30;fontColor=#858B94;dashed=0;" parent="1" vertex="1">
                    <mxGeometry width="820" height="660" as="geometry"/>
                </mxCell>
                <mxCell id="19" value="VPC&lt;br&gt;&lt;div&gt;10.0.0.0/24(10.0.0.0 ~ 10.0.0.255)&lt;/div&gt;&lt;div&gt;10.0.1.0/24(10.0.1.0 ~ 10.0.1.255)&lt;br&gt;&lt;/div&gt;&lt;div&gt;&lt;/div&gt;" style="points=[[0,0],[0.25,0],[0.5,0],[0.75,0],[1,0],[1,0.25],[1,0.5],[1,0.75],[1,1],[0.75,1],[0.5,1],[0.25,1],[0,1],[0,0.75],[0,0.5],[0,0.25]];outlineConnect=0;gradientColor=none;html=1;whiteSpace=wrap;fontSize=12;fontStyle=0;container=1;pointerEvents=0;collapsible=0;recursiveResize=0;shape=mxgraph.aws4.group;grIcon=mxgraph.aws4.group_vpc;strokeColor=#248814;fillColor=none;verticalAlign=top;align=left;spacingLeft=30;fontColor=#AAB7B8;dashed=0;" parent="1" vertex="1">
                    <mxGeometry x="20" y="30" width="640" height="560" as="geometry"/>
                </mxCell>
                <mxCell id="24" value="Availability Zone C" style="fillColor=none;strokeColor=#147EBA;dashed=1;verticalAlign=top;fontStyle=0;fontColor=#147EBA;" parent="19" vertex="1">
                    <mxGeometry x="330" y="80" width="290" height="440" as="geometry"/>
                </mxCell>
                <mxCell id="20" value="Protect subnet&lt;br&gt;&lt;span style=&quot;color: rgb(36 , 136 , 20)&quot;&gt;10.0.0.128/26&lt;/span&gt;&lt;font color=&quot;#248814&quot;&gt;(10.0.0.128 ~ 10.0.0.191)&lt;/font&gt;&lt;br style=&quot;color: rgb(36 , 136 , 20)&quot;&gt;&lt;span style=&quot;color: rgb(36 , 136 , 20)&quot;&gt;10.0.1.128/26&lt;/span&gt;&lt;font color=&quot;#248814&quot;&gt;(10.0.1.128 ~ 10.0.1.191)&lt;/font&gt;" style="points=[[0,0],[0.25,0],[0.5,0],[0.75,0],[1,0],[1,0.25],[1,0.5],[1,0.75],[1,1],[0.75,1],[0.5,1],[0.25,1],[0,1],[0,0.75],[0,0.5],[0,0.25]];outlineConnect=0;gradientColor=none;html=1;whiteSpace=wrap;fontSize=12;fontStyle=0;container=1;pointerEvents=0;collapsible=0;recursiveResize=0;shape=mxgraph.aws4.group;grIcon=mxgraph.aws4.group_security_group;grStroke=0;strokeColor=#147EBA;fillColor=#E6F2F8;verticalAlign=top;align=left;spacingLeft=30;fontColor=#147EBA;dashed=0;" parent="19" vertex="1">
                    <mxGeometry x="340" y="240" width="270" height="130" as="geometry"/>
                </mxCell>
                <mxCell id="21" value="Private subnet&lt;br&gt;&lt;span style=&quot;color: rgb(36 , 136 , 20)&quot;&gt;10.0.0.208/28&lt;/span&gt;&lt;font color=&quot;#248814&quot;&gt;(10.0.0.208 ~ 10.0.0.223)&lt;/font&gt;&lt;br style=&quot;color: rgb(36 , 136 , 20)&quot;&gt;&lt;span style=&quot;color: rgb(36 , 136 , 20)&quot;&gt;10.0.1.208/28&lt;/span&gt;&lt;font color=&quot;#248814&quot;&gt;(10.0.1.208 ~ 10.0.1.223)&lt;/font&gt;" style="points=[[0,0],[0.25,0],[0.5,0],[0.75,0],[1,0],[1,0.25],[1,0.5],[1,0.75],[1,1],[0.75,1],[0.5,1],[0.25,1],[0,1],[0,0.75],[0,0.5],[0,0.25]];outlineConnect=0;gradientColor=none;html=1;whiteSpace=wrap;fontSize=12;fontStyle=0;container=1;pointerEvents=0;collapsible=0;recursiveResize=0;shape=mxgraph.aws4.group;grIcon=mxgraph.aws4.group_security_group;grStroke=0;strokeColor=#147EBA;fillColor=#E6F2F8;verticalAlign=top;align=left;spacingLeft=30;fontColor=#147EBA;dashed=0;" parent="19" vertex="1">
                    <mxGeometry x="340" y="370" width="270" height="130" as="geometry"/>
                </mxCell>
                <mxCell id="22" value="Public subnet&lt;br&gt;10.0.0.32/27(10.0.0.32 ~ 10.0.0.63)&lt;br&gt;10.0.1.32/27(10.0.1.32 ~ 10.0.1.63)" style="points=[[0,0],[0.25,0],[0.5,0],[0.75,0],[1,0],[1,0.25],[1,0.5],[1,0.75],[1,1],[0.75,1],[0.5,1],[0.25,1],[0,1],[0,0.75],[0,0.5],[0,0.25]];outlineConnect=0;gradientColor=none;html=1;whiteSpace=wrap;fontSize=12;fontStyle=0;container=1;pointerEvents=0;collapsible=0;recursiveResize=0;shape=mxgraph.aws4.group;grIcon=mxgraph.aws4.group_security_group;grStroke=0;strokeColor=#248814;fillColor=#E9F3E6;verticalAlign=top;align=left;spacingLeft=30;fontColor=#248814;dashed=0;" parent="19" vertex="1">
                    <mxGeometry x="340" y="110" width="270" height="130" as="geometry"/>
                </mxCell>
                <mxCell id="26" value="NAT Gateway" style="sketch=0;outlineConnect=0;fontColor=#232F3E;gradientColor=none;fillColor=#4D27AA;strokeColor=none;dashed=0;verticalLabelPosition=bottom;verticalAlign=top;align=center;html=1;fontSize=9;fontStyle=0;aspect=fixed;pointerEvents=1;shape=mxgraph.aws4.nat_gateway;" parent="22" vertex="1">
                    <mxGeometry x="110" y="60" width="50" height="50" as="geometry"/>
                </mxCell>
                <mxCell id="45" style="edgeStyle=none;html=1;fontSize=9;strokeColor=#B3B3B3;strokeWidth=3;" parent="22" source="44" target="26" edge="1">
                    <mxGeometry relative="1" as="geometry">
                        <Array as="points">
                            <mxPoint x="204" y="85"/>
                        </Array>
                    </mxGeometry>
                </mxCell>
                <mxCell id="44" value="&lt;font style=&quot;font-size: 9px&quot;&gt;Elastic IP&lt;/font&gt;" style="sketch=0;outlineConnect=0;fontColor=#232F3E;gradientColor=none;fillColor=#D45B07;strokeColor=none;dashed=0;verticalLabelPosition=bottom;verticalAlign=top;align=center;html=1;fontSize=12;fontStyle=0;aspect=fixed;pointerEvents=1;shape=mxgraph.aws4.elastic_ip_address;" parent="22" vertex="1">
                    <mxGeometry x="190" y="95.33000000000001" width="28" height="11.67" as="geometry"/>
                </mxCell>
                <mxCell id="23" value="Availability Zone A" style="fillColor=none;strokeColor=#147EBA;dashed=1;verticalAlign=top;fontStyle=0;fontColor=#147EBA;" parent="19" vertex="1">
                    <mxGeometry x="20" y="80" width="290" height="440" as="geometry"/>
                </mxCell>
                <mxCell id="16" value="Public subnet&lt;br&gt;10.0.0.0/27(10.0.0.0 ~ 10.0.0.31)&lt;br&gt;10.0.1.0/27(10.0.1.0 ~ 10.0.1.31)" style="points=[[0,0],[0.25,0],[0.5,0],[0.75,0],[1,0],[1,0.25],[1,0.5],[1,0.75],[1,1],[0.75,1],[0.5,1],[0.25,1],[0,1],[0,0.75],[0,0.5],[0,0.25]];outlineConnect=0;gradientColor=none;html=1;whiteSpace=wrap;fontSize=12;fontStyle=0;container=1;pointerEvents=0;collapsible=0;recursiveResize=0;shape=mxgraph.aws4.group;grIcon=mxgraph.aws4.group_security_group;grStroke=0;strokeColor=#248814;fillColor=#E9F3E6;verticalAlign=top;align=left;spacingLeft=30;fontColor=#248814;dashed=0;" parent="19" vertex="1">
                    <mxGeometry x="30" y="110" width="270" height="130" as="geometry"/>
                </mxCell>
                <mxCell id="43" value="&lt;font style=&quot;font-size: 9px&quot;&gt;Elastic IP&lt;/font&gt;" style="sketch=0;outlineConnect=0;fontColor=#232F3E;gradientColor=none;fillColor=#D45B07;strokeColor=none;dashed=0;verticalLabelPosition=bottom;verticalAlign=top;align=center;html=1;fontSize=12;fontStyle=0;aspect=fixed;pointerEvents=1;shape=mxgraph.aws4.elastic_ip_address;" parent="16" vertex="1">
                    <mxGeometry x="50" y="95.33000000000001" width="28" height="11.67" as="geometry"/>
                </mxCell>
                <mxCell id="18" value="Protect subnet&lt;br&gt;&lt;span style=&quot;color: rgb(36 , 136 , 20)&quot;&gt;10.0.0.64/26&lt;/span&gt;&lt;font color=&quot;#248814&quot;&gt;(10.0.0.64 ~ 10.0.0.127)&lt;/font&gt;&lt;br style=&quot;color: rgb(36 , 136 , 20)&quot;&gt;&lt;span style=&quot;color: rgb(36 , 136 , 20)&quot;&gt;10.0.1.64/26&lt;/span&gt;&lt;font color=&quot;#248814&quot;&gt;(10.0.1.64 ~ 10.0.1.127)&lt;/font&gt;" style="points=[[0,0],[0.25,0],[0.5,0],[0.75,0],[1,0],[1,0.25],[1,0.5],[1,0.75],[1,1],[0.75,1],[0.5,1],[0.25,1],[0,1],[0,0.75],[0,0.5],[0,0.25]];outlineConnect=0;gradientColor=none;html=1;whiteSpace=wrap;fontSize=12;fontStyle=0;container=1;pointerEvents=0;collapsible=0;recursiveResize=0;shape=mxgraph.aws4.group;grIcon=mxgraph.aws4.group_security_group;grStroke=0;strokeColor=#147EBA;fillColor=#E6F2F8;verticalAlign=top;align=left;spacingLeft=30;fontColor=#147EBA;dashed=0;" parent="19" vertex="1">
                    <mxGeometry x="30" y="240" width="270" height="130" as="geometry"/>
                </mxCell>
                <mxCell id="48" value="Elastic network interface" style="sketch=0;outlineConnect=0;fontColor=#232F3E;gradientColor=none;fillColor=#4D27AA;strokeColor=none;dashed=0;verticalLabelPosition=bottom;verticalAlign=top;align=center;html=1;fontSize=9;fontStyle=0;aspect=fixed;pointerEvents=1;shape=mxgraph.aws4.elastic_network_interface;" vertex="1" parent="18">
                    <mxGeometry x="50" y="60" width="54" height="54" as="geometry"/>
                </mxCell>
                <mxCell id="17" value="Private subnet&lt;br&gt;&lt;span style=&quot;color: rgb(36 , 136 , 20)&quot;&gt;10.0.0.192/28&lt;/span&gt;&lt;font color=&quot;#248814&quot;&gt;(10.0.0.192 ~ 10.0.0.207)&lt;/font&gt;&lt;br style=&quot;color: rgb(36 , 136 , 20)&quot;&gt;&lt;span style=&quot;color: rgb(36 , 136 , 20)&quot;&gt;10.0.1.192/28&lt;/span&gt;&lt;font color=&quot;#248814&quot;&gt;(10.0.1.192 ~ 10.0.1.207)&lt;/font&gt;" style="points=[[0,0],[0.25,0],[0.5,0],[0.75,0],[1,0],[1,0.25],[1,0.5],[1,0.75],[1,1],[0.75,1],[0.5,1],[0.25,1],[0,1],[0,0.75],[0,0.5],[0,0.25]];outlineConnect=0;gradientColor=none;html=1;whiteSpace=wrap;fontSize=12;fontStyle=0;container=1;pointerEvents=0;collapsible=0;recursiveResize=0;shape=mxgraph.aws4.group;grIcon=mxgraph.aws4.group_security_group;grStroke=0;strokeColor=#147EBA;fillColor=#E6F2F8;verticalAlign=top;align=left;spacingLeft=30;fontColor=#147EBA;dashed=0;" parent="19" vertex="1">
                    <mxGeometry x="30" y="370" width="270" height="130" as="geometry"/>
                </mxCell>
                <mxCell id="32" style="edgeStyle=none;html=1;fontSize=9;strokeColor=#B3B3B3;strokeWidth=3;" parent="19" source="25" edge="1">
                    <mxGeometry relative="1" as="geometry">
                        <mxPoint x="320" y="40" as="targetPoint"/>
                        <Array as="points">
                            <mxPoint x="320" y="195"/>
                        </Array>
                    </mxGeometry>
                </mxCell>
                <mxCell id="25" value="NAT Gateway" style="sketch=0;outlineConnect=0;fontColor=#232F3E;gradientColor=none;fillColor=#4D27AA;strokeColor=none;dashed=0;verticalLabelPosition=bottom;verticalAlign=top;align=center;html=1;fontSize=9;fontStyle=0;aspect=fixed;pointerEvents=1;shape=mxgraph.aws4.nat_gateway;" parent="19" vertex="1">
                    <mxGeometry x="140" y="170" width="50" height="50" as="geometry"/>
                </mxCell>
                <mxCell id="29" value="Internet gateway" style="sketch=0;outlineConnect=0;fontColor=#232F3E;gradientColor=none;fillColor=#4D27AA;strokeColor=none;dashed=0;verticalLabelPosition=bottom;verticalAlign=top;align=center;html=1;fontSize=9;fontStyle=0;aspect=fixed;pointerEvents=1;shape=mxgraph.aws4.internet_gateway;" parent="19" vertex="1">
                    <mxGeometry x="295.5" y="-30" width="49" height="49" as="geometry"/>
                </mxCell>
                <mxCell id="33" style="edgeStyle=none;html=1;fontSize=9;strokeColor=#B3B3B3;strokeWidth=3;" parent="19" source="26" edge="1">
                    <mxGeometry relative="1" as="geometry">
                        <mxPoint x="320" y="40" as="targetPoint"/>
                        <Array as="points">
                            <mxPoint x="320" y="195"/>
                        </Array>
                    </mxGeometry>
                </mxCell>
                <mxCell id="41" style="edgeStyle=none;html=1;fontSize=9;strokeColor=#B3B3B3;strokeWidth=3;" parent="19" source="34" target="39" edge="1">
                    <mxGeometry relative="1" as="geometry">
                        <Array as="points">
                            <mxPoint x="320" y="327"/>
                        </Array>
                    </mxGeometry>
                </mxCell>
                <mxCell id="34" value="Elastic network interface" style="sketch=0;outlineConnect=0;fontColor=#232F3E;gradientColor=none;fillColor=#4D27AA;strokeColor=none;dashed=0;verticalLabelPosition=bottom;verticalAlign=top;align=center;html=1;fontSize=9;fontStyle=0;aspect=fixed;pointerEvents=1;shape=mxgraph.aws4.elastic_network_interface;" parent="19" vertex="1">
                    <mxGeometry x="200" y="300" width="54" height="54" as="geometry"/>
                </mxCell>
                <mxCell id="40" style="edgeStyle=none;html=1;fontSize=9;strokeColor=#B3B3B3;strokeWidth=3;" parent="19" source="35" target="39" edge="1">
                    <mxGeometry relative="1" as="geometry">
                        <Array as="points">
                            <mxPoint x="320" y="327"/>
                        </Array>
                    </mxGeometry>
                </mxCell>
                <mxCell id="35" value="Elastic network interface" style="sketch=0;outlineConnect=0;fontColor=#232F3E;gradientColor=none;fillColor=#4D27AA;strokeColor=none;dashed=0;verticalLabelPosition=bottom;verticalAlign=top;align=center;html=1;fontSize=9;fontStyle=0;aspect=fixed;pointerEvents=1;shape=mxgraph.aws4.elastic_network_interface;" parent="19" vertex="1">
                    <mxGeometry x="380" y="300" width="54" height="54" as="geometry"/>
                </mxCell>
                <mxCell id="39" value="Endpoint" style="sketch=0;outlineConnect=0;fontColor=#232F3E;gradientColor=none;fillColor=#4D27AA;strokeColor=none;dashed=0;verticalLabelPosition=bottom;verticalAlign=top;align=center;html=1;fontSize=9;fontStyle=0;aspect=fixed;pointerEvents=1;shape=mxgraph.aws4.endpoint;" parent="19" vertex="1">
                    <mxGeometry x="295.5" y="526" width="49" height="49" as="geometry"/>
                </mxCell>
                <mxCell id="46" style="edgeStyle=none;html=1;fontSize=9;strokeColor=#B3B3B3;strokeWidth=3;" parent="19" source="43" target="25" edge="1">
                    <mxGeometry relative="1" as="geometry">
                        <Array as="points">
                            <mxPoint x="94" y="195"/>
                        </Array>
                    </mxGeometry>
                </mxCell>
                <mxCell id="54" style="edgeStyle=none;html=1;strokeColor=#B3B3B3;strokeWidth=3;" edge="1" parent="19" source="47" target="26">
                    <mxGeometry relative="1" as="geometry">
                        <Array as="points">
                            <mxPoint x="544" y="290"/>
                            <mxPoint x="600" y="290"/>
                            <mxPoint x="600" y="180"/>
                            <mxPoint x="500" y="180"/>
                        </Array>
                    </mxGeometry>
                </mxCell>
                <mxCell id="47" value="Elastic network interface" style="sketch=0;outlineConnect=0;fontColor=#232F3E;gradientColor=none;fillColor=#4D27AA;strokeColor=none;dashed=0;verticalLabelPosition=bottom;verticalAlign=top;align=center;html=1;fontSize=9;fontStyle=0;aspect=fixed;pointerEvents=1;shape=mxgraph.aws4.elastic_network_interface;" vertex="1" parent="19">
                    <mxGeometry x="517" y="300" width="54" height="54" as="geometry"/>
                </mxCell>
                <mxCell id="53" style="edgeStyle=none;html=1;strokeColor=#B3B3B3;strokeWidth=3;" edge="1" parent="19" source="48" target="25">
                    <mxGeometry relative="1" as="geometry">
                        <Array as="points">
                            <mxPoint x="107" y="290"/>
                            <mxPoint x="290" y="290"/>
                            <mxPoint x="290" y="220"/>
                            <mxPoint x="190" y="220"/>
                        </Array>
                    </mxGeometry>
                </mxCell>
                <mxCell id="30" value="Internet" style="sketch=0;outlineConnect=0;fontColor=#232F3E;gradientColor=none;fillColor=#232F3D;strokeColor=none;dashed=0;verticalLabelPosition=bottom;verticalAlign=top;align=center;html=1;fontSize=9;fontStyle=0;aspect=fixed;pointerEvents=1;shape=mxgraph.aws4.internet;" parent="1" vertex="1">
                    <mxGeometry x="310.5" y="-118.31" width="59" height="36.31" as="geometry"/>
                </mxCell>
                <mxCell id="31" style="edgeStyle=none;html=1;fontSize=9;strokeColor=#B3B3B3;strokeWidth=3;" parent="1" source="29" edge="1">
                    <mxGeometry relative="1" as="geometry">
                        <mxPoint x="340" y="-60" as="targetPoint"/>
                    </mxGeometry>
                </mxCell>
                <mxCell id="36" value="AWS App Runner" style="sketch=0;points=[[0,0,0],[0.25,0,0],[0.5,0,0],[0.75,0,0],[1,0,0],[0,1,0],[0.25,1,0],[0.5,1,0],[0.75,1,0],[1,1,0],[0,0.25,0],[0,0.5,0],[0,0.75,0],[1,0.25,0],[1,0.5,0],[1,0.75,0]];outlineConnect=0;fontColor=#232F3E;gradientColor=#F78E04;gradientDirection=north;fillColor=#D05C17;strokeColor=#ffffff;dashed=0;verticalLabelPosition=bottom;verticalAlign=top;align=center;html=1;fontSize=9;fontStyle=0;aspect=fixed;shape=mxgraph.aws4.resourceIcon;resIcon=mxgraph.aws4.app_runner;" parent="1" vertex="1">
                    <mxGeometry x="710" y="320" width="48" height="48" as="geometry"/>
                </mxCell>
                <mxCell id="42" style="edgeStyle=none;html=1;fontSize=9;strokeColor=#B3B3B3;strokeWidth=3;" parent="1" source="39" target="36" edge="1">
                    <mxGeometry relative="1" as="geometry">
                        <Array as="points">
                            <mxPoint x="680" y="581"/>
                            <mxPoint x="680" y="344"/>
                        </Array>
                    </mxGeometry>
                </mxCell>
                <mxCell id="50" style="edgeStyle=none;html=1;fontSize=9;strokeColor=#B3B3B3;strokeWidth=3;exitX=0.5;exitY=0;exitDx=0;exitDy=0;exitPerimeter=0;" edge="1" parent="1" source="36" target="47">
                    <mxGeometry relative="1" as="geometry">
                        <Array as="points">
                            <mxPoint x="734" y="290"/>
                            <mxPoint x="650" y="290"/>
                            <mxPoint x="650" y="357"/>
                        </Array>
                        <mxPoint x="374.5" y="590.5360294117645" as="sourcePoint"/>
                        <mxPoint x="720" y="354" as="targetPoint"/>
                    </mxGeometry>
                </mxCell>
                <mxCell id="52" style="edgeStyle=none;html=1;fontSize=9;strokeColor=#B3B3B3;strokeWidth=3;exitX=0.5;exitY=0;exitDx=0;exitDy=0;exitPerimeter=0;" edge="1" parent="1" source="36" target="48">
                    <mxGeometry relative="1" as="geometry">
                        <Array as="points">
                            <mxPoint x="734" y="290"/>
                            <mxPoint x="790" y="290"/>
                            <mxPoint x="790" y="630"/>
                            <mxPoint x="30" y="630"/>
                            <mxPoint x="30" y="357"/>
                        </Array>
                        <mxPoint x="744" y="330" as="sourcePoint"/>
                        <mxPoint x="600.9993864054723" y="367" as="targetPoint"/>
                    </mxGeometry>
                </mxCell>
            </root>
        </mxGraphModel>
    </diagram>
    <diagram name="network-rooting" id="vLY8UD9ZpazvPc24hOdY">
        <mxGraphModel dx="1945" dy="1951" grid="1" gridSize="10" guides="1" tooltips="1" connect="1" arrows="1" fold="1" page="1" pageScale="1" pageWidth="827" pageHeight="1169" math="0" shadow="0">
            <root>
                <mxCell id="iPUOzX-dXio1aAxtf6S9-0"/>
                <mxCell id="iPUOzX-dXio1aAxtf6S9-1" parent="iPUOzX-dXio1aAxtf6S9-0"/>
                <mxCell id="iPUOzX-dXio1aAxtf6S9-2" value="" style="rounded=0;whiteSpace=wrap;html=1;fontSize=9;fillColor=#FFFFFF;" parent="iPUOzX-dXio1aAxtf6S9-1" vertex="1">
                    <mxGeometry x="-10" y="-130.15" width="700" height="760.15" as="geometry"/>
                </mxCell>
                <mxCell id="iPUOzX-dXio1aAxtf6S9-3" value="AWS Cloud" style="sketch=0;outlineConnect=0;gradientColor=none;html=1;whiteSpace=wrap;fontSize=12;fontStyle=0;shape=mxgraph.aws4.group;grIcon=mxgraph.aws4.group_aws_cloud;strokeColor=#858B94;fillColor=none;verticalAlign=top;align=left;spacingLeft=30;fontColor=#858B94;dashed=0;" parent="iPUOzX-dXio1aAxtf6S9-1" vertex="1">
                    <mxGeometry width="680" height="620" as="geometry"/>
                </mxCell>
                <mxCell id="iPUOzX-dXio1aAxtf6S9-4" value="VPC&lt;br&gt;&lt;div&gt;10.0.0.0/24(10.0.0.0 ~ 10.0.0.255)&lt;/div&gt;&lt;div&gt;10.0.1.0/24(10.0.1.0 ~ 10.0.1.255)&lt;br&gt;&lt;/div&gt;&lt;div&gt;&lt;/div&gt;" style="points=[[0,0],[0.25,0],[0.5,0],[0.75,0],[1,0],[1,0.25],[1,0.5],[1,0.75],[1,1],[0.75,1],[0.5,1],[0.25,1],[0,1],[0,0.75],[0,0.5],[0,0.25]];outlineConnect=0;gradientColor=none;html=1;whiteSpace=wrap;fontSize=12;fontStyle=0;container=1;pointerEvents=0;collapsible=0;recursiveResize=0;shape=mxgraph.aws4.group;grIcon=mxgraph.aws4.group_vpc;strokeColor=#248814;fillColor=none;verticalAlign=top;align=left;spacingLeft=30;fontColor=#AAB7B8;dashed=0;" parent="iPUOzX-dXio1aAxtf6S9-1" vertex="1">
                    <mxGeometry x="20" y="30" width="640" height="560" as="geometry"/>
                </mxCell>
                <mxCell id="iPUOzX-dXio1aAxtf6S9-5" value="Availability Zone C" style="fillColor=none;strokeColor=#147EBA;dashed=1;verticalAlign=top;fontStyle=0;fontColor=#147EBA;" parent="iPUOzX-dXio1aAxtf6S9-4" vertex="1">
                    <mxGeometry x="330" y="80" width="290" height="430" as="geometry"/>
                </mxCell>
                <mxCell id="iPUOzX-dXio1aAxtf6S9-6" value="Protect subnet&lt;br&gt;&lt;span style=&quot;color: rgb(36 , 136 , 20)&quot;&gt;10.0.0.128/26&lt;/span&gt;&lt;font color=&quot;#248814&quot;&gt;(10.0.0.128 ~ 10.0.0.191)&lt;/font&gt;&lt;br style=&quot;color: rgb(36 , 136 , 20)&quot;&gt;&lt;span style=&quot;color: rgb(36 , 136 , 20)&quot;&gt;10.0.1.128/26&lt;/span&gt;&lt;font color=&quot;#248814&quot;&gt;(10.0.1.128 ~ 10.0.1.191)&lt;/font&gt;" style="points=[[0,0],[0.25,0],[0.5,0],[0.75,0],[1,0],[1,0.25],[1,0.5],[1,0.75],[1,1],[0.75,1],[0.5,1],[0.25,1],[0,1],[0,0.75],[0,0.5],[0,0.25]];outlineConnect=0;gradientColor=none;html=1;whiteSpace=wrap;fontSize=12;fontStyle=0;container=1;pointerEvents=0;collapsible=0;recursiveResize=0;shape=mxgraph.aws4.group;grIcon=mxgraph.aws4.group_security_group;grStroke=0;strokeColor=#147EBA;fillColor=#E6F2F8;verticalAlign=top;align=left;spacingLeft=30;fontColor=#147EBA;dashed=0;" parent="iPUOzX-dXio1aAxtf6S9-4" vertex="1">
                    <mxGeometry x="340" y="240" width="270" height="130" as="geometry"/>
                </mxCell>
                <mxCell id="-m4b92kqmhPgltP_dbtj-5" value="&lt;font color=&quot;#232f3e&quot;&gt;0.0.0.0/0&lt;/font&gt;" style="text;html=1;strokeColor=none;fillColor=none;align=center;verticalAlign=middle;whiteSpace=wrap;rounded=0;fontSize=9;" parent="iPUOzX-dXio1aAxtf6S9-6" vertex="1">
                    <mxGeometry x="100" y="80" width="60" height="20" as="geometry"/>
                </mxCell>
                <mxCell id="iPUOzX-dXio1aAxtf6S9-7" value="Private subnet&lt;br&gt;&lt;span style=&quot;color: rgb(36 , 136 , 20)&quot;&gt;10.0.0.208/28&lt;/span&gt;&lt;font color=&quot;#248814&quot;&gt;(10.0.0.208 ~ 10.0.0.223)&lt;/font&gt;&lt;br style=&quot;color: rgb(36 , 136 , 20)&quot;&gt;&lt;span style=&quot;color: rgb(36 , 136 , 20)&quot;&gt;10.0.1.208/28&lt;/span&gt;&lt;font color=&quot;#248814&quot;&gt;(10.0.1.208 ~ 10.0.1.223)&lt;/font&gt;" style="points=[[0,0],[0.25,0],[0.5,0],[0.75,0],[1,0],[1,0.25],[1,0.5],[1,0.75],[1,1],[0.75,1],[0.5,1],[0.25,1],[0,1],[0,0.75],[0,0.5],[0,0.25]];outlineConnect=0;gradientColor=none;html=1;whiteSpace=wrap;fontSize=12;fontStyle=0;container=1;pointerEvents=0;collapsible=0;recursiveResize=0;shape=mxgraph.aws4.group;grIcon=mxgraph.aws4.group_security_group;grStroke=0;strokeColor=#147EBA;fillColor=#E6F2F8;verticalAlign=top;align=left;spacingLeft=30;fontColor=#147EBA;dashed=0;" parent="iPUOzX-dXio1aAxtf6S9-4" vertex="1">
                    <mxGeometry x="340" y="370" width="270" height="130" as="geometry"/>
                </mxCell>
                <mxCell id="iPUOzX-dXio1aAxtf6S9-8" value="Public subnet&lt;br&gt;10.0.0.32/27(10.0.0.32 ~ 10.0.0.63)&lt;br&gt;10.0.1.32/27(10.0.1.32 ~ 10.0.1.63)" style="points=[[0,0],[0.25,0],[0.5,0],[0.75,0],[1,0],[1,0.25],[1,0.5],[1,0.75],[1,1],[0.75,1],[0.5,1],[0.25,1],[0,1],[0,0.75],[0,0.5],[0,0.25]];outlineConnect=0;gradientColor=none;html=1;whiteSpace=wrap;fontSize=12;fontStyle=0;container=1;pointerEvents=0;collapsible=0;recursiveResize=0;shape=mxgraph.aws4.group;grIcon=mxgraph.aws4.group_security_group;grStroke=0;strokeColor=#248814;fillColor=#E9F3E6;verticalAlign=top;align=left;spacingLeft=30;fontColor=#248814;dashed=0;" parent="iPUOzX-dXio1aAxtf6S9-4" vertex="1">
                    <mxGeometry x="340" y="110" width="270" height="130" as="geometry"/>
                </mxCell>
                <mxCell id="iPUOzX-dXio1aAxtf6S9-34" value="&lt;font color=&quot;#232f3e&quot;&gt;0.0.0.0/0&lt;/font&gt;" style="text;html=1;strokeColor=none;fillColor=none;align=center;verticalAlign=middle;whiteSpace=wrap;rounded=0;fontSize=9;" parent="iPUOzX-dXio1aAxtf6S9-8" vertex="1">
                    <mxGeometry x="100" y="52" width="60" height="20" as="geometry"/>
                </mxCell>
                <mxCell id="-m4b92kqmhPgltP_dbtj-1" value="NAT Gateway" style="sketch=0;outlineConnect=0;fontColor=#232F3E;gradientColor=none;fillColor=#4D27AA;strokeColor=none;dashed=0;verticalLabelPosition=bottom;verticalAlign=top;align=center;html=1;fontSize=9;fontStyle=0;aspect=fixed;pointerEvents=1;shape=mxgraph.aws4.nat_gateway;" parent="iPUOzX-dXio1aAxtf6S9-8" vertex="1">
                    <mxGeometry x="115" y="80" width="30" height="30" as="geometry"/>
                </mxCell>
                <mxCell id="iPUOzX-dXio1aAxtf6S9-12" value="Availability Zone A" style="fillColor=none;strokeColor=#147EBA;dashed=1;verticalAlign=top;fontStyle=0;fontColor=#147EBA;" parent="iPUOzX-dXio1aAxtf6S9-4" vertex="1">
                    <mxGeometry x="20" y="80" width="290" height="430" as="geometry"/>
                </mxCell>
                <mxCell id="iPUOzX-dXio1aAxtf6S9-13" value="Public subnet&lt;br&gt;10.0.0.0/27(10.0.0.0 ~ 10.0.0.31)&lt;br&gt;10.0.1.0/27(10.0.1.0 ~ 10.0.1.31)" style="points=[[0,0],[0.25,0],[0.5,0],[0.75,0],[1,0],[1,0.25],[1,0.5],[1,0.75],[1,1],[0.75,1],[0.5,1],[0.25,1],[0,1],[0,0.75],[0,0.5],[0,0.25]];outlineConnect=0;gradientColor=none;html=1;whiteSpace=wrap;fontSize=12;fontStyle=0;container=1;pointerEvents=0;collapsible=0;recursiveResize=0;shape=mxgraph.aws4.group;grIcon=mxgraph.aws4.group_security_group;grStroke=0;strokeColor=#248814;fillColor=#E9F3E6;verticalAlign=top;align=left;spacingLeft=30;fontColor=#248814;dashed=0;" parent="iPUOzX-dXio1aAxtf6S9-4" vertex="1">
                    <mxGeometry x="30" y="110" width="270" height="130" as="geometry"/>
                </mxCell>
                <mxCell id="-m4b92kqmhPgltP_dbtj-0" value="NAT Gateway" style="sketch=0;outlineConnect=0;fontColor=#232F3E;gradientColor=none;fillColor=#4D27AA;strokeColor=none;dashed=0;verticalLabelPosition=bottom;verticalAlign=top;align=center;html=1;fontSize=9;fontStyle=0;aspect=fixed;pointerEvents=1;shape=mxgraph.aws4.nat_gateway;" parent="iPUOzX-dXio1aAxtf6S9-13" vertex="1">
                    <mxGeometry x="115" y="80" width="30" height="30" as="geometry"/>
                </mxCell>
                <mxCell id="iPUOzX-dXio1aAxtf6S9-15" value="Protect subnet&lt;br&gt;&lt;span style=&quot;color: rgb(36 , 136 , 20)&quot;&gt;10.0.0.64/26&lt;/span&gt;&lt;font color=&quot;#248814&quot;&gt;(10.0.0.64 ~ 10.0.0.127)&lt;/font&gt;&lt;br style=&quot;color: rgb(36 , 136 , 20)&quot;&gt;&lt;span style=&quot;color: rgb(36 , 136 , 20)&quot;&gt;10.0.1.64/26&lt;/span&gt;&lt;font color=&quot;#248814&quot;&gt;(10.0.1.64 ~ 10.0.1.127)&lt;/font&gt;" style="points=[[0,0],[0.25,0],[0.5,0],[0.75,0],[1,0],[1,0.25],[1,0.5],[1,0.75],[1,1],[0.75,1],[0.5,1],[0.25,1],[0,1],[0,0.75],[0,0.5],[0,0.25]];outlineConnect=0;gradientColor=none;html=1;whiteSpace=wrap;fontSize=12;fontStyle=0;container=1;pointerEvents=0;collapsible=0;recursiveResize=0;shape=mxgraph.aws4.group;grIcon=mxgraph.aws4.group_security_group;grStroke=0;strokeColor=#147EBA;fillColor=#E6F2F8;verticalAlign=top;align=left;spacingLeft=30;fontColor=#147EBA;dashed=0;" parent="iPUOzX-dXio1aAxtf6S9-4" vertex="1">
                    <mxGeometry x="30" y="240" width="270" height="130" as="geometry"/>
                </mxCell>
                <mxCell id="-m4b92kqmhPgltP_dbtj-4" value="&lt;font color=&quot;#232f3e&quot;&gt;0.0.0.0/0&lt;/font&gt;" style="text;html=1;strokeColor=none;fillColor=none;align=center;verticalAlign=middle;whiteSpace=wrap;rounded=0;fontSize=9;" parent="iPUOzX-dXio1aAxtf6S9-15" vertex="1">
                    <mxGeometry x="100" y="80" width="60" height="20" as="geometry"/>
                </mxCell>
                <mxCell id="iPUOzX-dXio1aAxtf6S9-16" value="Private subnet&lt;br&gt;&lt;span style=&quot;color: rgb(36 , 136 , 20)&quot;&gt;10.0.0.192/28&lt;/span&gt;&lt;font color=&quot;#248814&quot;&gt;(10.0.0.192 ~ 10.0.0.207)&lt;/font&gt;&lt;br style=&quot;color: rgb(36 , 136 , 20)&quot;&gt;&lt;span style=&quot;color: rgb(36 , 136 , 20)&quot;&gt;10.0.1.192/28&lt;/span&gt;&lt;font color=&quot;#248814&quot;&gt;(10.0.1.192 ~ 10.0.1.207)&lt;/font&gt;" style="points=[[0,0],[0.25,0],[0.5,0],[0.75,0],[1,0],[1,0.25],[1,0.5],[1,0.75],[1,1],[0.75,1],[0.5,1],[0.25,1],[0,1],[0,0.75],[0,0.5],[0,0.25]];outlineConnect=0;gradientColor=none;html=1;whiteSpace=wrap;fontSize=12;fontStyle=0;container=1;pointerEvents=0;collapsible=0;recursiveResize=0;shape=mxgraph.aws4.group;grIcon=mxgraph.aws4.group_security_group;grStroke=0;strokeColor=#147EBA;fillColor=#E6F2F8;verticalAlign=top;align=left;spacingLeft=30;fontColor=#147EBA;dashed=0;" parent="iPUOzX-dXio1aAxtf6S9-4" vertex="1">
                    <mxGeometry x="30" y="370" width="270" height="130" as="geometry"/>
                </mxCell>
                <mxCell id="iPUOzX-dXio1aAxtf6S9-17" style="edgeStyle=none;html=1;fontSize=9;strokeColor=#B3B3B3;strokeWidth=3;" parent="iPUOzX-dXio1aAxtf6S9-4" source="iPUOzX-dXio1aAxtf6S9-32" edge="1">
                    <mxGeometry relative="1" as="geometry">
                        <mxPoint x="190" y="195" as="sourcePoint"/>
                        <mxPoint x="320" y="40" as="targetPoint"/>
                        <Array as="points">
                            <mxPoint x="320" y="172"/>
                        </Array>
                    </mxGeometry>
                </mxCell>
                <mxCell id="iPUOzX-dXio1aAxtf6S9-19" value="Internet gateway" style="sketch=0;outlineConnect=0;fontColor=#232F3E;gradientColor=none;fillColor=#4D27AA;strokeColor=none;dashed=0;verticalLabelPosition=bottom;verticalAlign=top;align=center;html=1;fontSize=9;fontStyle=0;aspect=fixed;pointerEvents=1;shape=mxgraph.aws4.internet_gateway;" parent="iPUOzX-dXio1aAxtf6S9-4" vertex="1">
                    <mxGeometry x="295.5" y="-30" width="49" height="49" as="geometry"/>
                </mxCell>
                <mxCell id="iPUOzX-dXio1aAxtf6S9-20" style="edgeStyle=none;html=1;fontSize=9;strokeColor=#B3B3B3;strokeWidth=3;exitX=0;exitY=0.5;exitDx=0;exitDy=0;" parent="iPUOzX-dXio1aAxtf6S9-4" source="iPUOzX-dXio1aAxtf6S9-34" edge="1">
                    <mxGeometry relative="1" as="geometry">
                        <mxPoint x="440" y="195" as="sourcePoint"/>
                        <mxPoint x="320" y="40" as="targetPoint"/>
                        <Array as="points">
                            <mxPoint x="320" y="172"/>
                        </Array>
                    </mxGeometry>
                </mxCell>
                <mxCell id="iPUOzX-dXio1aAxtf6S9-32" value="&lt;font color=&quot;#232f3e&quot;&gt;0.0.0.0/0&lt;/font&gt;" style="text;html=1;strokeColor=none;fillColor=none;align=center;verticalAlign=middle;whiteSpace=wrap;rounded=0;fontSize=9;" parent="iPUOzX-dXio1aAxtf6S9-4" vertex="1">
                    <mxGeometry x="130" y="162" width="60" height="20" as="geometry"/>
                </mxCell>
                <mxCell id="-m4b92kqmhPgltP_dbtj-2" style="edgeStyle=none;html=1;fontSize=9;strokeColor=#B3B3B3;strokeWidth=3;" parent="iPUOzX-dXio1aAxtf6S9-4" source="-m4b92kqmhPgltP_dbtj-4" target="-m4b92kqmhPgltP_dbtj-0" edge="1">
                    <mxGeometry relative="1" as="geometry">
                        <mxPoint x="170" y="334" as="sourcePoint"/>
                        <mxPoint x="320" y="209" as="targetPoint"/>
                        <Array as="points">
                            <mxPoint x="310" y="330"/>
                            <mxPoint x="310" y="205"/>
                        </Array>
                    </mxGeometry>
                </mxCell>
                <mxCell id="-m4b92kqmhPgltP_dbtj-3" style="edgeStyle=none;html=1;fontSize=9;strokeColor=#B3B3B3;strokeWidth=3;" parent="iPUOzX-dXio1aAxtf6S9-4" source="-m4b92kqmhPgltP_dbtj-5" target="-m4b92kqmhPgltP_dbtj-1" edge="1">
                    <mxGeometry relative="1" as="geometry">
                        <mxPoint x="440" y="341" as="sourcePoint"/>
                        <mxPoint x="320" y="209" as="targetPoint"/>
                        <Array as="points">
                            <mxPoint x="330" y="330"/>
                            <mxPoint x="330" y="205"/>
                        </Array>
                    </mxGeometry>
                </mxCell>
                <mxCell id="iPUOzX-dXio1aAxtf6S9-27" value="Internet" style="sketch=0;outlineConnect=0;fontColor=#232F3E;gradientColor=none;fillColor=#232F3D;strokeColor=none;dashed=0;verticalLabelPosition=bottom;verticalAlign=top;align=center;html=1;fontSize=9;fontStyle=0;aspect=fixed;pointerEvents=1;shape=mxgraph.aws4.internet;" parent="iPUOzX-dXio1aAxtf6S9-1" vertex="1">
                    <mxGeometry x="310.5" y="-118.31" width="59" height="36.31" as="geometry"/>
                </mxCell>
                <mxCell id="iPUOzX-dXio1aAxtf6S9-28" style="edgeStyle=none;html=1;fontSize=9;strokeColor=#B3B3B3;strokeWidth=3;" parent="iPUOzX-dXio1aAxtf6S9-1" source="iPUOzX-dXio1aAxtf6S9-19" edge="1">
                    <mxGeometry relative="1" as="geometry">
                        <mxPoint x="340" y="-60" as="targetPoint"/>
                    </mxGeometry>
                </mxCell>
            </root>
        </mxGraphModel>
    </diagram>
    <diagram name="network-public-security-group" id="gIzX6XaZ68BwCE7IDFxG">
        <mxGraphModel dx="1945" dy="1951" grid="1" gridSize="10" guides="1" tooltips="1" connect="1" arrows="1" fold="1" page="1" pageScale="1" pageWidth="827" pageHeight="1169" math="0" shadow="0">
            <root>
                <mxCell id="XXI12KtSGMszhiypOjtw-0"/>
                <mxCell id="XXI12KtSGMszhiypOjtw-1" parent="XXI12KtSGMszhiypOjtw-0"/>
                <mxCell id="XXI12KtSGMszhiypOjtw-2" value="" style="rounded=0;whiteSpace=wrap;html=1;fontSize=9;fillColor=#FFFFFF;" parent="XXI12KtSGMszhiypOjtw-1" vertex="1">
                    <mxGeometry x="-10" y="-130.15" width="700" height="760.15" as="geometry"/>
                </mxCell>
                <mxCell id="XXI12KtSGMszhiypOjtw-3" value="AWS Cloud" style="sketch=0;outlineConnect=0;gradientColor=none;html=1;whiteSpace=wrap;fontSize=12;fontStyle=0;shape=mxgraph.aws4.group;grIcon=mxgraph.aws4.group_aws_cloud;strokeColor=#858B94;fillColor=none;verticalAlign=top;align=left;spacingLeft=30;fontColor=#858B94;dashed=0;" parent="XXI12KtSGMszhiypOjtw-1" vertex="1">
                    <mxGeometry width="680" height="620" as="geometry"/>
                </mxCell>
                <mxCell id="XXI12KtSGMszhiypOjtw-4" value="VPC&lt;br&gt;&lt;div&gt;10.0.0.0/24(10.0.0.0 ~ 10.0.0.255)&lt;/div&gt;&lt;div&gt;10.0.1.0/24(10.0.1.0 ~ 10.0.1.255)&lt;br&gt;&lt;/div&gt;&lt;div&gt;&lt;/div&gt;" style="points=[[0,0],[0.25,0],[0.5,0],[0.75,0],[1,0],[1,0.25],[1,0.5],[1,0.75],[1,1],[0.75,1],[0.5,1],[0.25,1],[0,1],[0,0.75],[0,0.5],[0,0.25]];outlineConnect=0;gradientColor=none;html=1;whiteSpace=wrap;fontSize=12;fontStyle=0;container=1;pointerEvents=0;collapsible=0;recursiveResize=0;shape=mxgraph.aws4.group;grIcon=mxgraph.aws4.group_vpc;strokeColor=#248814;fillColor=none;verticalAlign=top;align=left;spacingLeft=30;fontColor=#AAB7B8;dashed=0;" parent="XXI12KtSGMszhiypOjtw-1" vertex="1">
                    <mxGeometry x="20" y="30" width="640" height="560" as="geometry"/>
                </mxCell>
                <mxCell id="XXI12KtSGMszhiypOjtw-5" value="Availability Zone C" style="fillColor=none;strokeColor=#147EBA;dashed=1;verticalAlign=top;fontStyle=0;fontColor=#147EBA;" parent="XXI12KtSGMszhiypOjtw-4" vertex="1">
                    <mxGeometry x="330" y="80" width="290" height="430" as="geometry"/>
                </mxCell>
                <mxCell id="XXI12KtSGMszhiypOjtw-6" value="Protect subnet" style="points=[[0,0],[0.25,0],[0.5,0],[0.75,0],[1,0],[1,0.25],[1,0.5],[1,0.75],[1,1],[0.75,1],[0.5,1],[0.25,1],[0,1],[0,0.75],[0,0.5],[0,0.25]];outlineConnect=0;gradientColor=none;html=1;whiteSpace=wrap;fontSize=12;fontStyle=0;container=1;pointerEvents=0;collapsible=0;recursiveResize=0;shape=mxgraph.aws4.group;grIcon=mxgraph.aws4.group_security_group;grStroke=0;strokeColor=#147EBA;fillColor=#E6F2F8;verticalAlign=top;align=left;spacingLeft=30;fontColor=#147EBA;dashed=0;" parent="XXI12KtSGMszhiypOjtw-4" vertex="1">
                    <mxGeometry x="340" y="240" width="270" height="130" as="geometry"/>
                </mxCell>
                <mxCell id="XXI12KtSGMszhiypOjtw-8" value="Private subnet" style="points=[[0,0],[0.25,0],[0.5,0],[0.75,0],[1,0],[1,0.25],[1,0.5],[1,0.75],[1,1],[0.75,1],[0.5,1],[0.25,1],[0,1],[0,0.75],[0,0.5],[0,0.25]];outlineConnect=0;gradientColor=none;html=1;whiteSpace=wrap;fontSize=12;fontStyle=0;container=1;pointerEvents=0;collapsible=0;recursiveResize=0;shape=mxgraph.aws4.group;grIcon=mxgraph.aws4.group_security_group;grStroke=0;strokeColor=#147EBA;fillColor=#E6F2F8;verticalAlign=top;align=left;spacingLeft=30;fontColor=#147EBA;dashed=0;" parent="XXI12KtSGMszhiypOjtw-4" vertex="1">
                    <mxGeometry x="340" y="370" width="270" height="130" as="geometry"/>
                </mxCell>
                <mxCell id="XXI12KtSGMszhiypOjtw-9" value="Public subnet" style="points=[[0,0],[0.25,0],[0.5,0],[0.75,0],[1,0],[1,0.25],[1,0.5],[1,0.75],[1,1],[0.75,1],[0.5,1],[0.25,1],[0,1],[0,0.75],[0,0.5],[0,0.25]];outlineConnect=0;gradientColor=none;html=1;whiteSpace=wrap;fontSize=12;fontStyle=0;container=1;pointerEvents=0;collapsible=0;recursiveResize=0;shape=mxgraph.aws4.group;grIcon=mxgraph.aws4.group_security_group;grStroke=0;strokeColor=#248814;fillColor=#E9F3E6;verticalAlign=top;align=left;spacingLeft=30;fontColor=#248814;dashed=0;" parent="XXI12KtSGMszhiypOjtw-4" vertex="1">
                    <mxGeometry x="340" y="110" width="270" height="130" as="geometry"/>
                </mxCell>
                <mxCell id="XXI12KtSGMszhiypOjtw-12" value="Availability Zone A" style="fillColor=none;strokeColor=#147EBA;dashed=1;verticalAlign=top;fontStyle=0;fontColor=#147EBA;" parent="XXI12KtSGMszhiypOjtw-4" vertex="1">
                    <mxGeometry x="20" y="80" width="290" height="430" as="geometry"/>
                </mxCell>
                <mxCell id="XXI12KtSGMszhiypOjtw-13" value="Public subnet" style="points=[[0,0],[0.25,0],[0.5,0],[0.75,0],[1,0],[1,0.25],[1,0.5],[1,0.75],[1,1],[0.75,1],[0.5,1],[0.25,1],[0,1],[0,0.75],[0,0.5],[0,0.25]];outlineConnect=0;gradientColor=none;html=1;whiteSpace=wrap;fontSize=12;fontStyle=0;container=1;pointerEvents=0;collapsible=0;recursiveResize=0;shape=mxgraph.aws4.group;grIcon=mxgraph.aws4.group_security_group;grStroke=0;strokeColor=#248814;fillColor=#E9F3E6;verticalAlign=top;align=left;spacingLeft=30;fontColor=#248814;dashed=0;" parent="XXI12KtSGMszhiypOjtw-4" vertex="1">
                    <mxGeometry x="30" y="110" width="270" height="130" as="geometry"/>
                </mxCell>
                <mxCell id="XXI12KtSGMszhiypOjtw-15" value="Protect subnet&lt;br&gt;" style="points=[[0,0],[0.25,0],[0.5,0],[0.75,0],[1,0],[1,0.25],[1,0.5],[1,0.75],[1,1],[0.75,1],[0.5,1],[0.25,1],[0,1],[0,0.75],[0,0.5],[0,0.25]];outlineConnect=0;gradientColor=none;html=1;whiteSpace=wrap;fontSize=12;fontStyle=0;container=1;pointerEvents=0;collapsible=0;recursiveResize=0;shape=mxgraph.aws4.group;grIcon=mxgraph.aws4.group_security_group;grStroke=0;strokeColor=#147EBA;fillColor=#E6F2F8;verticalAlign=top;align=left;spacingLeft=30;fontColor=#147EBA;dashed=0;" parent="XXI12KtSGMszhiypOjtw-4" vertex="1">
                    <mxGeometry x="30" y="240" width="270" height="130" as="geometry"/>
                </mxCell>
                <mxCell id="OlmNV9A21HjE759_QcV--5" style="edgeStyle=none;html=1;fontSize=9;strokeColor=#3399FF;strokeWidth=3;fillColor=#1ba1e2;" parent="XXI12KtSGMszhiypOjtw-15" edge="1">
                    <mxGeometry relative="1" as="geometry">
                        <mxPoint x="160" y="-20" as="sourcePoint"/>
                        <mxPoint x="410" y="30" as="targetPoint"/>
                        <Array as="points">
                            <mxPoint x="290.53" y="-20"/>
                            <mxPoint x="290.53" y="30"/>
                        </Array>
                    </mxGeometry>
                </mxCell>
                <mxCell id="OlmNV9A21HjE759_QcV--7" style="edgeStyle=none;html=1;fontSize=9;strokeColor=#3399FF;strokeWidth=3;fillColor=#1ba1e2;" parent="XXI12KtSGMszhiypOjtw-15" edge="1">
                    <mxGeometry relative="1" as="geometry">
                        <mxPoint x="410" y="-20" as="sourcePoint"/>
                        <mxPoint x="410" y="30" as="targetPoint"/>
                        <Array as="points">
                            <mxPoint x="291" y="-20.060000000000002"/>
                            <mxPoint x="291" y="29.939999999999998"/>
                        </Array>
                    </mxGeometry>
                </mxCell>
                <mxCell id="XXI12KtSGMszhiypOjtw-17" value="Private subnet&lt;br&gt;" style="points=[[0,0],[0.25,0],[0.5,0],[0.75,0],[1,0],[1,0.25],[1,0.5],[1,0.75],[1,1],[0.75,1],[0.5,1],[0.25,1],[0,1],[0,0.75],[0,0.5],[0,0.25]];outlineConnect=0;gradientColor=none;html=1;whiteSpace=wrap;fontSize=12;fontStyle=0;container=1;pointerEvents=0;collapsible=0;recursiveResize=0;shape=mxgraph.aws4.group;grIcon=mxgraph.aws4.group_security_group;grStroke=0;strokeColor=#147EBA;fillColor=#E6F2F8;verticalAlign=top;align=left;spacingLeft=30;fontColor=#147EBA;dashed=0;" parent="XXI12KtSGMszhiypOjtw-4" vertex="1">
                    <mxGeometry x="30" y="370" width="270" height="130" as="geometry"/>
                </mxCell>
                <mxCell id="XXI12KtSGMszhiypOjtw-18" style="edgeStyle=none;html=1;fontSize=9;strokeColor=#3399FF;strokeWidth=3;fillColor=#1ba1e2;" parent="XXI12KtSGMszhiypOjtw-4" edge="1">
                    <mxGeometry relative="1" as="geometry">
                        <mxPoint x="190" y="152" as="sourcePoint"/>
                        <mxPoint x="330" y="49" as="targetPoint"/>
                        <Array as="points">
                            <mxPoint x="330" y="152"/>
                        </Array>
                    </mxGeometry>
                </mxCell>
                <mxCell id="XXI12KtSGMszhiypOjtw-19" value="Internet gateway" style="sketch=0;outlineConnect=0;fontColor=#232F3E;gradientColor=none;fillColor=#4D27AA;strokeColor=none;dashed=0;verticalLabelPosition=bottom;verticalAlign=top;align=center;html=1;fontSize=9;fontStyle=0;aspect=fixed;pointerEvents=1;shape=mxgraph.aws4.internet_gateway;" parent="XXI12KtSGMszhiypOjtw-4" vertex="1">
                    <mxGeometry x="295.5" y="-30" width="49" height="49" as="geometry"/>
                </mxCell>
                <mxCell id="XXI12KtSGMszhiypOjtw-20" style="edgeStyle=none;html=1;fontSize=9;strokeColor=#3399FF;strokeWidth=3;exitX=0;exitY=0.5;exitDx=0;exitDy=0;fillColor=#1ba1e2;" parent="XXI12KtSGMszhiypOjtw-4" edge="1">
                    <mxGeometry relative="1" as="geometry">
                        <mxPoint x="440" y="152" as="sourcePoint"/>
                        <mxPoint x="330" y="49" as="targetPoint"/>
                        <Array as="points">
                            <mxPoint x="330" y="152"/>
                        </Array>
                    </mxGeometry>
                </mxCell>
                <mxCell id="kVx1_poIALo-NQAqjr_I-3" style="edgeStyle=none;html=1;fontSize=9;strokeColor=#FF3333;strokeWidth=3;fillColor=#a20025;" parent="XXI12KtSGMszhiypOjtw-4" edge="1">
                    <mxGeometry relative="1" as="geometry">
                        <mxPoint x="310" y="49" as="sourcePoint"/>
                        <mxPoint x="190" y="141" as="targetPoint"/>
                        <Array as="points">
                            <mxPoint x="310" y="141"/>
                        </Array>
                    </mxGeometry>
                </mxCell>
                <mxCell id="kVx1_poIALo-NQAqjr_I-4" style="edgeStyle=none;html=1;fontSize=9;strokeColor=#FF3333;strokeWidth=3;fillColor=#a20025;entryX=0.379;entryY=0.191;entryDx=0;entryDy=0;entryPerimeter=0;" parent="XXI12KtSGMszhiypOjtw-4" edge="1">
                    <mxGeometry relative="1" as="geometry">
                        <mxPoint x="310" y="49" as="sourcePoint"/>
                        <mxPoint x="439.90999999999985" y="141.1300000000001" as="targetPoint"/>
                        <Array as="points">
                            <mxPoint x="310" y="141"/>
                        </Array>
                    </mxGeometry>
                </mxCell>
                <mxCell id="kVx1_poIALo-NQAqjr_I-5" value="&lt;font color=&quot;#ff3333&quot;&gt;TCP/UDP 80/443&lt;/font&gt;" style="text;html=1;strokeColor=none;fillColor=none;align=center;verticalAlign=middle;whiteSpace=wrap;rounded=0;fontSize=9;fontColor=#232F3E;" parent="XXI12KtSGMszhiypOjtw-4" vertex="1">
                    <mxGeometry x="210.5" y="119" width="80" height="20" as="geometry"/>
                </mxCell>
                <mxCell id="kVx1_poIALo-NQAqjr_I-7" value="&lt;font color=&quot;#ff3333&quot;&gt;TCP 0~65535&lt;/font&gt;" style="text;html=1;strokeColor=none;fillColor=none;align=center;verticalAlign=middle;whiteSpace=wrap;rounded=0;fontSize=9;fontColor=#232F3E;" parent="XXI12KtSGMszhiypOjtw-4" vertex="1">
                    <mxGeometry x="340" y="175" width="80" height="20" as="geometry"/>
                </mxCell>
                <mxCell id="OlmNV9A21HjE759_QcV--0" style="edgeStyle=none;html=1;fontSize=9;strokeColor=#FF3333;strokeWidth=3;horizontal=1;startArrow=classic;startFill=1;" parent="XXI12KtSGMszhiypOjtw-4" edge="1">
                    <mxGeometry relative="1" as="geometry">
                        <mxPoint x="440" y="195" as="sourcePoint"/>
                        <mxPoint x="190" y="195" as="targetPoint"/>
                        <Array as="points"/>
                    </mxGeometry>
                </mxCell>
                <mxCell id="OlmNV9A21HjE759_QcV--2" value="&lt;font&gt;TCP 0~65535&lt;/font&gt;" style="text;html=1;strokeColor=none;fillColor=none;align=center;verticalAlign=middle;whiteSpace=wrap;rounded=0;fontSize=9;fontColor=#3399FF;" parent="XXI12KtSGMszhiypOjtw-4" vertex="1">
                    <mxGeometry x="339.5" y="153" width="80" height="20" as="geometry"/>
                </mxCell>
                <mxCell id="OlmNV9A21HjE759_QcV--3" style="edgeStyle=none;html=1;fontSize=9;strokeColor=#3399FF;strokeWidth=3;fillColor=#1ba1e2;exitX=0.586;exitY=0.326;exitDx=0;exitDy=0;exitPerimeter=0;" parent="XXI12KtSGMszhiypOjtw-4" source="XXI12KtSGMszhiypOjtw-12" edge="1">
                    <mxGeometry relative="1" as="geometry">
                        <mxPoint x="201" y="220" as="sourcePoint"/>
                        <mxPoint x="190" y="270" as="targetPoint"/>
                        <Array as="points">
                            <mxPoint x="321" y="220"/>
                            <mxPoint x="321" y="270"/>
                        </Array>
                    </mxGeometry>
                </mxCell>
                <mxCell id="OlmNV9A21HjE759_QcV--4" value="TCP/UDP 80/443" style="text;html=1;strokeColor=none;fillColor=none;align=center;verticalAlign=middle;whiteSpace=wrap;rounded=0;fontSize=9;fontColor=#3399FF;" parent="XXI12KtSGMszhiypOjtw-4" vertex="1">
                    <mxGeometry x="210.5" y="250" width="80" height="20" as="geometry"/>
                </mxCell>
                <mxCell id="XXI12KtSGMszhiypOjtw-24" value="Internet" style="sketch=0;outlineConnect=0;fontColor=#232F3E;gradientColor=none;fillColor=#232F3D;strokeColor=none;dashed=0;verticalLabelPosition=bottom;verticalAlign=top;align=center;html=1;fontSize=9;fontStyle=0;aspect=fixed;pointerEvents=1;shape=mxgraph.aws4.internet;" parent="XXI12KtSGMszhiypOjtw-1" vertex="1">
                    <mxGeometry x="310.5" y="-118.31" width="59" height="36.31" as="geometry"/>
                </mxCell>
                <mxCell id="XXI12KtSGMszhiypOjtw-25" style="edgeStyle=none;html=1;fontSize=9;strokeColor=#B3B3B3;strokeWidth=3;" parent="XXI12KtSGMszhiypOjtw-1" source="XXI12KtSGMszhiypOjtw-19" edge="1">
                    <mxGeometry relative="1" as="geometry">
                        <mxPoint x="340" y="-60" as="targetPoint"/>
                    </mxGeometry>
                </mxCell>
                <mxCell id="kVx1_poIALo-NQAqjr_I-0" style="edgeStyle=none;html=1;fontSize=9;strokeColor=#3399FF;strokeWidth=3;horizontal=1;startArrow=classic;startFill=1;" parent="XXI12KtSGMszhiypOjtw-1" edge="1">
                    <mxGeometry relative="1" as="geometry">
                        <mxPoint x="460" y="203" as="sourcePoint"/>
                        <mxPoint x="210" y="203" as="targetPoint"/>
                        <Array as="points"/>
                    </mxGeometry>
                </mxCell>
                <mxCell id="OlmNV9A21HjE759_QcV--6" style="edgeStyle=none;html=1;fontSize=9;strokeColor=#3399FF;strokeWidth=3;fillColor=#1ba1e2;" parent="XXI12KtSGMszhiypOjtw-1" edge="1">
                    <mxGeometry relative="1" as="geometry">
                        <mxPoint x="460" y="250" as="sourcePoint"/>
                        <mxPoint x="210" y="300" as="targetPoint"/>
                        <Array as="points">
                            <mxPoint x="341" y="250"/>
                            <mxPoint x="341" y="300"/>
                        </Array>
                    </mxGeometry>
                </mxCell>
            </root>
        </mxGraphModel>
    </diagram>
    <diagram name="network-protect-security-group" id="RAkT1La2nceo76EDrUnV">
        <mxGraphModel dx="1945" dy="1951" grid="1" gridSize="10" guides="1" tooltips="1" connect="1" arrows="1" fold="1" page="1" pageScale="1" pageWidth="827" pageHeight="1169" math="0" shadow="0">
            <root>
                <mxCell id="4ThKCgm0_mO8y5CpenmK-0"/>
                <mxCell id="4ThKCgm0_mO8y5CpenmK-1" parent="4ThKCgm0_mO8y5CpenmK-0"/>
                <mxCell id="4ThKCgm0_mO8y5CpenmK-2" value="" style="rounded=0;whiteSpace=wrap;html=1;fontSize=9;fillColor=#FFFFFF;" parent="4ThKCgm0_mO8y5CpenmK-1" vertex="1">
                    <mxGeometry x="-10" y="-130.15" width="700" height="760.15" as="geometry"/>
                </mxCell>
                <mxCell id="4ThKCgm0_mO8y5CpenmK-3" value="AWS Cloud" style="sketch=0;outlineConnect=0;gradientColor=none;html=1;whiteSpace=wrap;fontSize=12;fontStyle=0;shape=mxgraph.aws4.group;grIcon=mxgraph.aws4.group_aws_cloud;strokeColor=#858B94;fillColor=none;verticalAlign=top;align=left;spacingLeft=30;fontColor=#858B94;dashed=0;" parent="4ThKCgm0_mO8y5CpenmK-1" vertex="1">
                    <mxGeometry width="680" height="620" as="geometry"/>
                </mxCell>
                <mxCell id="4ThKCgm0_mO8y5CpenmK-4" value="VPC&lt;br&gt;&lt;div&gt;10.0.0.0/24(10.0.0.0 ~ 10.0.0.255)&lt;/div&gt;&lt;div&gt;10.0.1.0/24(10.0.1.0 ~ 10.0.1.255)&lt;br&gt;&lt;/div&gt;&lt;div&gt;&lt;/div&gt;" style="points=[[0,0],[0.25,0],[0.5,0],[0.75,0],[1,0],[1,0.25],[1,0.5],[1,0.75],[1,1],[0.75,1],[0.5,1],[0.25,1],[0,1],[0,0.75],[0,0.5],[0,0.25]];outlineConnect=0;gradientColor=none;html=1;whiteSpace=wrap;fontSize=12;fontStyle=0;container=1;pointerEvents=0;collapsible=0;recursiveResize=0;shape=mxgraph.aws4.group;grIcon=mxgraph.aws4.group_vpc;strokeColor=#248814;fillColor=none;verticalAlign=top;align=left;spacingLeft=30;fontColor=#AAB7B8;dashed=0;" parent="4ThKCgm0_mO8y5CpenmK-1" vertex="1">
                    <mxGeometry x="20" y="30" width="640" height="560" as="geometry"/>
                </mxCell>
                <mxCell id="4ThKCgm0_mO8y5CpenmK-9" value="Availability Zone A" style="fillColor=none;strokeColor=#147EBA;dashed=1;verticalAlign=top;fontStyle=0;fontColor=#147EBA;" parent="4ThKCgm0_mO8y5CpenmK-4" vertex="1">
                    <mxGeometry x="20" y="80" width="290" height="430" as="geometry"/>
                </mxCell>
                <mxCell id="4ThKCgm0_mO8y5CpenmK-5" value="Availability Zone C" style="fillColor=none;strokeColor=#147EBA;dashed=1;verticalAlign=top;fontStyle=0;fontColor=#147EBA;" parent="4ThKCgm0_mO8y5CpenmK-4" vertex="1">
                    <mxGeometry x="330" y="80" width="290" height="430" as="geometry"/>
                </mxCell>
                <mxCell id="4ThKCgm0_mO8y5CpenmK-6" value="Protect subnet" style="points=[[0,0],[0.25,0],[0.5,0],[0.75,0],[1,0],[1,0.25],[1,0.5],[1,0.75],[1,1],[0.75,1],[0.5,1],[0.25,1],[0,1],[0,0.75],[0,0.5],[0,0.25]];outlineConnect=0;gradientColor=none;html=1;whiteSpace=wrap;fontSize=12;fontStyle=0;container=1;pointerEvents=0;collapsible=0;recursiveResize=0;shape=mxgraph.aws4.group;grIcon=mxgraph.aws4.group_security_group;grStroke=0;strokeColor=#147EBA;fillColor=#E6F2F8;verticalAlign=top;align=left;spacingLeft=30;fontColor=#147EBA;dashed=0;" parent="4ThKCgm0_mO8y5CpenmK-4" vertex="1">
                    <mxGeometry x="340" y="240" width="270" height="130" as="geometry"/>
                </mxCell>
                <mxCell id="4ThKCgm0_mO8y5CpenmK-21" value="&lt;font color=&quot;#ff3333&quot;&gt;TCP 0~65535&lt;/font&gt;" style="text;html=1;strokeColor=none;fillColor=none;align=center;verticalAlign=middle;whiteSpace=wrap;rounded=0;fontSize=9;fontColor=#232F3E;" parent="4ThKCgm0_mO8y5CpenmK-6" vertex="1">
                    <mxGeometry y="44.65999999999997" width="80" height="20" as="geometry"/>
                </mxCell>
                <mxCell id="4ThKCgm0_mO8y5CpenmK-23" value="&lt;font&gt;TCP 0~65535&lt;/font&gt;" style="text;html=1;strokeColor=none;fillColor=none;align=center;verticalAlign=middle;whiteSpace=wrap;rounded=0;fontSize=9;fontColor=#3399FF;" parent="4ThKCgm0_mO8y5CpenmK-6" vertex="1">
                    <mxGeometry x="-0.5" y="65" width="80" height="20" as="geometry"/>
                </mxCell>
                <mxCell id="4ThKCgm0_mO8y5CpenmK-7" value="Private subnet" style="points=[[0,0],[0.25,0],[0.5,0],[0.75,0],[1,0],[1,0.25],[1,0.5],[1,0.75],[1,1],[0.75,1],[0.5,1],[0.25,1],[0,1],[0,0.75],[0,0.5],[0,0.25]];outlineConnect=0;gradientColor=none;html=1;whiteSpace=wrap;fontSize=12;fontStyle=0;container=1;pointerEvents=0;collapsible=0;recursiveResize=0;shape=mxgraph.aws4.group;grIcon=mxgraph.aws4.group_security_group;grStroke=0;strokeColor=#147EBA;fillColor=#E6F2F8;verticalAlign=top;align=left;spacingLeft=30;fontColor=#147EBA;dashed=0;" parent="4ThKCgm0_mO8y5CpenmK-4" vertex="1">
                    <mxGeometry x="340" y="370" width="270" height="130" as="geometry"/>
                </mxCell>
                <mxCell id="WkdnQc0WfJGo0G30pUkQ-12" value="&lt;font&gt;TCP 3306 / 5432&lt;/font&gt;" style="text;html=1;strokeColor=none;fillColor=none;align=center;verticalAlign=middle;whiteSpace=wrap;rounded=0;fontSize=9;fontColor=#3399FF;" parent="4ThKCgm0_mO8y5CpenmK-7" vertex="1">
                    <mxGeometry y="55" width="80" height="20" as="geometry"/>
                </mxCell>
                <mxCell id="4ThKCgm0_mO8y5CpenmK-8" value="Public subnet" style="points=[[0,0],[0.25,0],[0.5,0],[0.75,0],[1,0],[1,0.25],[1,0.5],[1,0.75],[1,1],[0.75,1],[0.5,1],[0.25,1],[0,1],[0,0.75],[0,0.5],[0,0.25]];outlineConnect=0;gradientColor=none;html=1;whiteSpace=wrap;fontSize=12;fontStyle=0;container=1;pointerEvents=0;collapsible=0;recursiveResize=0;shape=mxgraph.aws4.group;grIcon=mxgraph.aws4.group_security_group;grStroke=0;strokeColor=#248814;fillColor=#E9F3E6;verticalAlign=top;align=left;spacingLeft=30;fontColor=#248814;dashed=0;" parent="4ThKCgm0_mO8y5CpenmK-4" vertex="1">
                    <mxGeometry x="340" y="110" width="270" height="130" as="geometry"/>
                </mxCell>
                <mxCell id="4ThKCgm0_mO8y5CpenmK-10" value="Public subnet" style="points=[[0,0],[0.25,0],[0.5,0],[0.75,0],[1,0],[1,0.25],[1,0.5],[1,0.75],[1,1],[0.75,1],[0.5,1],[0.25,1],[0,1],[0,0.75],[0,0.5],[0,0.25]];outlineConnect=0;gradientColor=none;html=1;whiteSpace=wrap;fontSize=12;fontStyle=0;container=1;pointerEvents=0;collapsible=0;recursiveResize=0;shape=mxgraph.aws4.group;grIcon=mxgraph.aws4.group_security_group;grStroke=0;strokeColor=#248814;fillColor=#E9F3E6;verticalAlign=top;align=left;spacingLeft=30;fontColor=#248814;dashed=0;" parent="4ThKCgm0_mO8y5CpenmK-4" vertex="1">
                    <mxGeometry x="30" y="110" width="270" height="130" as="geometry"/>
                </mxCell>
                <mxCell id="4ThKCgm0_mO8y5CpenmK-11" value="Protect subnet&lt;br&gt;" style="points=[[0,0],[0.25,0],[0.5,0],[0.75,0],[1,0],[1,0.25],[1,0.5],[1,0.75],[1,1],[0.75,1],[0.5,1],[0.25,1],[0,1],[0,0.75],[0,0.5],[0,0.25]];outlineConnect=0;gradientColor=none;html=1;whiteSpace=wrap;fontSize=12;fontStyle=0;container=1;pointerEvents=0;collapsible=0;recursiveResize=0;shape=mxgraph.aws4.group;grIcon=mxgraph.aws4.group_security_group;grStroke=0;strokeColor=#147EBA;fillColor=#E6F2F8;verticalAlign=top;align=left;spacingLeft=30;fontColor=#147EBA;dashed=0;" parent="4ThKCgm0_mO8y5CpenmK-4" vertex="1">
                    <mxGeometry x="30" y="240" width="270" height="130" as="geometry"/>
                </mxCell>
                <mxCell id="4ThKCgm0_mO8y5CpenmK-12" style="edgeStyle=none;html=1;fontSize=9;strokeColor=#FF3333;strokeWidth=3;fillColor=#1ba1e2;" parent="4ThKCgm0_mO8y5CpenmK-11" edge="1">
                    <mxGeometry relative="1" as="geometry">
                        <mxPoint x="160" y="-20" as="sourcePoint"/>
                        <mxPoint x="410" y="30" as="targetPoint"/>
                        <Array as="points">
                            <mxPoint x="280" y="-20"/>
                            <mxPoint x="280" y="30"/>
                        </Array>
                    </mxGeometry>
                </mxCell>
                <mxCell id="4ThKCgm0_mO8y5CpenmK-13" style="edgeStyle=none;html=1;fontSize=9;strokeColor=#FF3333;strokeWidth=3;fillColor=#1ba1e2;" parent="4ThKCgm0_mO8y5CpenmK-11" edge="1">
                    <mxGeometry relative="1" as="geometry">
                        <mxPoint x="410" y="-20" as="sourcePoint"/>
                        <mxPoint x="410" y="30" as="targetPoint"/>
                        <Array as="points">
                            <mxPoint x="280" y="-20"/>
                            <mxPoint x="280" y="30"/>
                        </Array>
                    </mxGeometry>
                </mxCell>
                <mxCell id="WkdnQc0WfJGo0G30pUkQ-0" style="edgeStyle=none;html=1;fontSize=9;strokeColor=#FF3333;strokeWidth=3;fillColor=#1ba1e2;startArrow=classic;startFill=1;" parent="4ThKCgm0_mO8y5CpenmK-11" edge="1">
                    <mxGeometry relative="1" as="geometry">
                        <mxPoint x="410" y="64" as="sourcePoint"/>
                        <mxPoint x="160" y="64" as="targetPoint"/>
                    </mxGeometry>
                </mxCell>
                <mxCell id="WkdnQc0WfJGo0G30pUkQ-3" style="edgeStyle=none;html=1;fontSize=9;strokeColor=#3399FF;strokeWidth=3;fillColor=#1ba1e2;" parent="4ThKCgm0_mO8y5CpenmK-11" edge="1">
                    <mxGeometry relative="1" as="geometry">
                        <mxPoint x="160" y="43" as="sourcePoint"/>
                        <mxPoint x="160" y="-60" as="targetPoint"/>
                        <Array as="points">
                            <mxPoint x="300" y="43"/>
                            <mxPoint x="300" y="-60"/>
                        </Array>
                    </mxGeometry>
                </mxCell>
                <mxCell id="WkdnQc0WfJGo0G30pUkQ-4" style="edgeStyle=none;html=1;fontSize=9;strokeColor=#3399FF;strokeWidth=3;fillColor=#1ba1e2;entryX=0.379;entryY=0.233;entryDx=0;entryDy=0;entryPerimeter=0;" parent="4ThKCgm0_mO8y5CpenmK-11" target="4ThKCgm0_mO8y5CpenmK-5" edge="1">
                    <mxGeometry relative="1" as="geometry">
                        <mxPoint x="160" y="43" as="sourcePoint"/>
                        <mxPoint x="400.8" y="-20" as="targetPoint"/>
                        <Array as="points">
                            <mxPoint x="300" y="43"/>
                            <mxPoint x="300" y="-60"/>
                        </Array>
                    </mxGeometry>
                </mxCell>
                <mxCell id="WkdnQc0WfJGo0G30pUkQ-5" style="edgeStyle=none;html=1;fontSize=9;strokeColor=#3399FF;strokeWidth=3;fillColor=#1ba1e2;entryX=0.379;entryY=0.233;entryDx=0;entryDy=0;entryPerimeter=0;exitX=0.379;exitY=0.472;exitDx=0;exitDy=0;exitPerimeter=0;" parent="4ThKCgm0_mO8y5CpenmK-11" source="4ThKCgm0_mO8y5CpenmK-5" edge="1">
                    <mxGeometry relative="1" as="geometry">
                        <mxPoint x="160" y="43" as="sourcePoint"/>
                        <mxPoint x="409.9100000000001" y="-59.809999999999945" as="targetPoint"/>
                        <Array as="points">
                            <mxPoint x="300" y="43"/>
                            <mxPoint x="300" y="-60"/>
                        </Array>
                    </mxGeometry>
                </mxCell>
                <mxCell id="4ThKCgm0_mO8y5CpenmK-14" value="Private subnet&lt;br&gt;" style="points=[[0,0],[0.25,0],[0.5,0],[0.75,0],[1,0],[1,0.25],[1,0.5],[1,0.75],[1,1],[0.75,1],[0.5,1],[0.25,1],[0,1],[0,0.75],[0,0.5],[0,0.25]];outlineConnect=0;gradientColor=none;html=1;whiteSpace=wrap;fontSize=12;fontStyle=0;container=1;pointerEvents=0;collapsible=0;recursiveResize=0;shape=mxgraph.aws4.group;grIcon=mxgraph.aws4.group_security_group;grStroke=0;strokeColor=#147EBA;fillColor=#E6F2F8;verticalAlign=top;align=left;spacingLeft=30;fontColor=#147EBA;dashed=0;" parent="4ThKCgm0_mO8y5CpenmK-4" vertex="1">
                    <mxGeometry x="30" y="370" width="270" height="130" as="geometry"/>
                </mxCell>
                <mxCell id="4ThKCgm0_mO8y5CpenmK-16" value="Internet gateway" style="sketch=0;outlineConnect=0;fontColor=#232F3E;gradientColor=none;fillColor=#4D27AA;strokeColor=none;dashed=0;verticalLabelPosition=bottom;verticalAlign=top;align=center;html=1;fontSize=9;fontStyle=0;aspect=fixed;pointerEvents=1;shape=mxgraph.aws4.internet_gateway;" parent="4ThKCgm0_mO8y5CpenmK-4" vertex="1">
                    <mxGeometry x="295.5" y="-30" width="49" height="49" as="geometry"/>
                </mxCell>
                <mxCell id="4ThKCgm0_mO8y5CpenmK-24" style="edgeStyle=none;html=1;fontSize=9;strokeColor=#FF3333;strokeWidth=3;fillColor=#1ba1e2;exitX=0.586;exitY=0.326;exitDx=0;exitDy=0;exitPerimeter=0;" parent="4ThKCgm0_mO8y5CpenmK-4" source="4ThKCgm0_mO8y5CpenmK-9" edge="1">
                    <mxGeometry relative="1" as="geometry">
                        <mxPoint x="201" y="220" as="sourcePoint"/>
                        <mxPoint x="190" y="270" as="targetPoint"/>
                        <Array as="points">
                            <mxPoint x="310" y="220"/>
                            <mxPoint x="310" y="270"/>
                        </Array>
                    </mxGeometry>
                </mxCell>
                <mxCell id="4ThKCgm0_mO8y5CpenmK-25" value="TCP/UDP 80/443" style="text;html=1;strokeColor=none;fillColor=none;align=center;verticalAlign=middle;whiteSpace=wrap;rounded=0;fontSize=9;fontColor=#FF3333;" parent="4ThKCgm0_mO8y5CpenmK-4" vertex="1">
                    <mxGeometry x="210.5" y="250" width="80" height="20" as="geometry"/>
                </mxCell>
                <mxCell id="WkdnQc0WfJGo0G30pUkQ-1" style="edgeStyle=none;html=1;fontSize=9;strokeColor=#3399FF;strokeWidth=3;fillColor=#1ba1e2;startArrow=classic;startFill=1;" parent="4ThKCgm0_mO8y5CpenmK-4" edge="1">
                    <mxGeometry relative="1" as="geometry">
                        <mxPoint x="440" y="326" as="sourcePoint"/>
                        <mxPoint x="190" y="326" as="targetPoint"/>
                    </mxGeometry>
                </mxCell>
                <mxCell id="WkdnQc0WfJGo0G30pUkQ-6" style="edgeStyle=none;html=1;fontSize=9;strokeColor=#3399FF;strokeWidth=3;fillColor=#1ba1e2;" parent="4ThKCgm0_mO8y5CpenmK-4" edge="1">
                    <mxGeometry relative="1" as="geometry">
                        <mxPoint x="440" y="283" as="sourcePoint"/>
                        <mxPoint x="190" y="180" as="targetPoint"/>
                        <Array as="points">
                            <mxPoint x="330" y="283"/>
                            <mxPoint x="330" y="180"/>
                        </Array>
                    </mxGeometry>
                </mxCell>
                <mxCell id="WkdnQc0WfJGo0G30pUkQ-8" value="&lt;font color=&quot;#3399ff&quot;&gt;TCP 80/443&lt;/font&gt;" style="text;html=1;strokeColor=none;fillColor=none;align=center;verticalAlign=middle;whiteSpace=wrap;rounded=0;fontSize=9;fontColor=#232F3E;" parent="4ThKCgm0_mO8y5CpenmK-4" vertex="1">
                    <mxGeometry x="210.5" y="160" width="80" height="20" as="geometry"/>
                </mxCell>
                <mxCell id="WkdnQc0WfJGo0G30pUkQ-10" style="edgeStyle=none;html=1;fontSize=9;strokeColor=#3399FF;strokeWidth=3;fillColor=#1ba1e2;startArrow=classic;startFill=1;endArrow=none;endFill=0;" parent="4ThKCgm0_mO8y5CpenmK-4" edge="1">
                    <mxGeometry relative="1" as="geometry">
                        <mxPoint x="440" y="453" as="sourcePoint"/>
                        <mxPoint x="440" y="350" as="targetPoint"/>
                        <Array as="points">
                            <mxPoint x="320" y="453"/>
                            <mxPoint x="320" y="350"/>
                        </Array>
                    </mxGeometry>
                </mxCell>
                <mxCell id="WkdnQc0WfJGo0G30pUkQ-11" style="edgeStyle=none;html=1;fontSize=9;strokeColor=#3399FF;strokeWidth=3;fillColor=#1ba1e2;startArrow=classic;startFill=1;endArrow=none;endFill=0;exitX=0.586;exitY=0.867;exitDx=0;exitDy=0;exitPerimeter=0;" parent="4ThKCgm0_mO8y5CpenmK-4" source="4ThKCgm0_mO8y5CpenmK-9" edge="1">
                    <mxGeometry relative="1" as="geometry">
                        <mxPoint x="440" y="453" as="sourcePoint"/>
                        <mxPoint x="190" y="350" as="targetPoint"/>
                        <Array as="points">
                            <mxPoint x="320" y="453"/>
                            <mxPoint x="320" y="350"/>
                        </Array>
                    </mxGeometry>
                </mxCell>
                <mxCell id="4ThKCgm0_mO8y5CpenmK-26" value="Internet" style="sketch=0;outlineConnect=0;fontColor=#232F3E;gradientColor=none;fillColor=#232F3D;strokeColor=none;dashed=0;verticalLabelPosition=bottom;verticalAlign=top;align=center;html=1;fontSize=9;fontStyle=0;aspect=fixed;pointerEvents=1;shape=mxgraph.aws4.internet;" parent="4ThKCgm0_mO8y5CpenmK-1" vertex="1">
                    <mxGeometry x="310.5" y="-118.31" width="59" height="36.31" as="geometry"/>
                </mxCell>
                <mxCell id="4ThKCgm0_mO8y5CpenmK-27" style="edgeStyle=none;html=1;fontSize=9;strokeColor=#B3B3B3;strokeWidth=3;" parent="4ThKCgm0_mO8y5CpenmK-1" source="4ThKCgm0_mO8y5CpenmK-16" edge="1">
                    <mxGeometry relative="1" as="geometry">
                        <mxPoint x="340" y="-60" as="targetPoint"/>
                    </mxGeometry>
                </mxCell>
                <mxCell id="4ThKCgm0_mO8y5CpenmK-29" style="edgeStyle=none;html=1;fontSize=9;strokeColor=#FF3333;strokeWidth=3;fillColor=#1ba1e2;" parent="4ThKCgm0_mO8y5CpenmK-1" edge="1">
                    <mxGeometry relative="1" as="geometry">
                        <mxPoint x="460" y="250" as="sourcePoint"/>
                        <mxPoint x="210" y="300" as="targetPoint"/>
                        <Array as="points">
                            <mxPoint x="330" y="250"/>
                            <mxPoint x="330" y="300"/>
                        </Array>
                    </mxGeometry>
                </mxCell>
            </root>
        </mxGraphModel>
    </diagram>
    <diagram name="network-protect-security-groupのコピー" id="X5QL7w3DPanwx3lJi6il">
        <mxGraphModel dx="1945" dy="1951" grid="1" gridSize="10" guides="1" tooltips="1" connect="1" arrows="1" fold="1" page="1" pageScale="1" pageWidth="827" pageHeight="1169" math="0" shadow="0">
            <root>
                <mxCell id="0qceyOk1GAlapzXxqgbH-0"/>
                <mxCell id="0qceyOk1GAlapzXxqgbH-1" parent="0qceyOk1GAlapzXxqgbH-0"/>
                <mxCell id="0qceyOk1GAlapzXxqgbH-2" value="" style="rounded=0;whiteSpace=wrap;html=1;fontSize=9;fillColor=#FFFFFF;" parent="0qceyOk1GAlapzXxqgbH-1" vertex="1">
                    <mxGeometry x="-10" y="-130.15" width="700" height="760.15" as="geometry"/>
                </mxCell>
                <mxCell id="0qceyOk1GAlapzXxqgbH-3" value="AWS Cloud" style="sketch=0;outlineConnect=0;gradientColor=none;html=1;whiteSpace=wrap;fontSize=12;fontStyle=0;shape=mxgraph.aws4.group;grIcon=mxgraph.aws4.group_aws_cloud;strokeColor=#858B94;fillColor=none;verticalAlign=top;align=left;spacingLeft=30;fontColor=#858B94;dashed=0;" parent="0qceyOk1GAlapzXxqgbH-1" vertex="1">
                    <mxGeometry width="680" height="620" as="geometry"/>
                </mxCell>
                <mxCell id="0qceyOk1GAlapzXxqgbH-4" value="VPC&lt;br&gt;&lt;div&gt;10.0.0.0/24(10.0.0.0 ~ 10.0.0.255)&lt;/div&gt;&lt;div&gt;10.0.1.0/24(10.0.1.0 ~ 10.0.1.255)&lt;br&gt;&lt;/div&gt;&lt;div&gt;&lt;/div&gt;" style="points=[[0,0],[0.25,0],[0.5,0],[0.75,0],[1,0],[1,0.25],[1,0.5],[1,0.75],[1,1],[0.75,1],[0.5,1],[0.25,1],[0,1],[0,0.75],[0,0.5],[0,0.25]];outlineConnect=0;gradientColor=none;html=1;whiteSpace=wrap;fontSize=12;fontStyle=0;container=1;pointerEvents=0;collapsible=0;recursiveResize=0;shape=mxgraph.aws4.group;grIcon=mxgraph.aws4.group_vpc;strokeColor=#248814;fillColor=none;verticalAlign=top;align=left;spacingLeft=30;fontColor=#AAB7B8;dashed=0;" parent="0qceyOk1GAlapzXxqgbH-1" vertex="1">
                    <mxGeometry x="20" y="30" width="640" height="560" as="geometry"/>
                </mxCell>
                <mxCell id="0qceyOk1GAlapzXxqgbH-5" value="Availability Zone A" style="fillColor=none;strokeColor=#147EBA;dashed=1;verticalAlign=top;fontStyle=0;fontColor=#147EBA;" parent="0qceyOk1GAlapzXxqgbH-4" vertex="1">
                    <mxGeometry x="20" y="80" width="290" height="430" as="geometry"/>
                </mxCell>
                <mxCell id="0qceyOk1GAlapzXxqgbH-6" value="Availability Zone C" style="fillColor=none;strokeColor=#147EBA;dashed=1;verticalAlign=top;fontStyle=0;fontColor=#147EBA;" parent="0qceyOk1GAlapzXxqgbH-4" vertex="1">
                    <mxGeometry x="330" y="80" width="290" height="430" as="geometry"/>
                </mxCell>
                <mxCell id="0qceyOk1GAlapzXxqgbH-7" value="Protect subnet" style="points=[[0,0],[0.25,0],[0.5,0],[0.75,0],[1,0],[1,0.25],[1,0.5],[1,0.75],[1,1],[0.75,1],[0.5,1],[0.25,1],[0,1],[0,0.75],[0,0.5],[0,0.25]];outlineConnect=0;gradientColor=none;html=1;whiteSpace=wrap;fontSize=12;fontStyle=0;container=1;pointerEvents=0;collapsible=0;recursiveResize=0;shape=mxgraph.aws4.group;grIcon=mxgraph.aws4.group_security_group;grStroke=0;strokeColor=#147EBA;fillColor=#E6F2F8;verticalAlign=top;align=left;spacingLeft=30;fontColor=#147EBA;dashed=0;" parent="0qceyOk1GAlapzXxqgbH-4" vertex="1">
                    <mxGeometry x="340" y="240" width="270" height="130" as="geometry"/>
                </mxCell>
                <mxCell id="0qceyOk1GAlapzXxqgbH-10" value="Private subnet" style="points=[[0,0],[0.25,0],[0.5,0],[0.75,0],[1,0],[1,0.25],[1,0.5],[1,0.75],[1,1],[0.75,1],[0.5,1],[0.25,1],[0,1],[0,0.75],[0,0.5],[0,0.25]];outlineConnect=0;gradientColor=none;html=1;whiteSpace=wrap;fontSize=12;fontStyle=0;container=1;pointerEvents=0;collapsible=0;recursiveResize=0;shape=mxgraph.aws4.group;grIcon=mxgraph.aws4.group_security_group;grStroke=0;strokeColor=#147EBA;fillColor=#E6F2F8;verticalAlign=top;align=left;spacingLeft=30;fontColor=#147EBA;dashed=0;" parent="0qceyOk1GAlapzXxqgbH-4" vertex="1">
                    <mxGeometry x="340" y="370" width="270" height="130" as="geometry"/>
                </mxCell>
                <mxCell id="0qceyOk1GAlapzXxqgbH-11" value="&lt;font&gt;TCP 3306 / 5432&lt;/font&gt;" style="text;html=1;strokeColor=none;fillColor=none;align=center;verticalAlign=middle;whiteSpace=wrap;rounded=0;fontSize=9;fontColor=#FF3333;" parent="0qceyOk1GAlapzXxqgbH-10" vertex="1">
                    <mxGeometry y="55" width="80" height="20" as="geometry"/>
                </mxCell>
                <mxCell id="0qceyOk1GAlapzXxqgbH-12" value="Public subnet" style="points=[[0,0],[0.25,0],[0.5,0],[0.75,0],[1,0],[1,0.25],[1,0.5],[1,0.75],[1,1],[0.75,1],[0.5,1],[0.25,1],[0,1],[0,0.75],[0,0.5],[0,0.25]];outlineConnect=0;gradientColor=none;html=1;whiteSpace=wrap;fontSize=12;fontStyle=0;container=1;pointerEvents=0;collapsible=0;recursiveResize=0;shape=mxgraph.aws4.group;grIcon=mxgraph.aws4.group_security_group;grStroke=0;strokeColor=#248814;fillColor=#E9F3E6;verticalAlign=top;align=left;spacingLeft=30;fontColor=#248814;dashed=0;" parent="0qceyOk1GAlapzXxqgbH-4" vertex="1">
                    <mxGeometry x="340" y="110" width="270" height="130" as="geometry"/>
                </mxCell>
                <mxCell id="0qceyOk1GAlapzXxqgbH-13" value="Public subnet" style="points=[[0,0],[0.25,0],[0.5,0],[0.75,0],[1,0],[1,0.25],[1,0.5],[1,0.75],[1,1],[0.75,1],[0.5,1],[0.25,1],[0,1],[0,0.75],[0,0.5],[0,0.25]];outlineConnect=0;gradientColor=none;html=1;whiteSpace=wrap;fontSize=12;fontStyle=0;container=1;pointerEvents=0;collapsible=0;recursiveResize=0;shape=mxgraph.aws4.group;grIcon=mxgraph.aws4.group_security_group;grStroke=0;strokeColor=#248814;fillColor=#E9F3E6;verticalAlign=top;align=left;spacingLeft=30;fontColor=#248814;dashed=0;" parent="0qceyOk1GAlapzXxqgbH-4" vertex="1">
                    <mxGeometry x="30" y="110" width="270" height="130" as="geometry"/>
                </mxCell>
                <mxCell id="0qceyOk1GAlapzXxqgbH-14" value="Protect subnet&lt;br&gt;" style="points=[[0,0],[0.25,0],[0.5,0],[0.75,0],[1,0],[1,0.25],[1,0.5],[1,0.75],[1,1],[0.75,1],[0.5,1],[0.25,1],[0,1],[0,0.75],[0,0.5],[0,0.25]];outlineConnect=0;gradientColor=none;html=1;whiteSpace=wrap;fontSize=12;fontStyle=0;container=1;pointerEvents=0;collapsible=0;recursiveResize=0;shape=mxgraph.aws4.group;grIcon=mxgraph.aws4.group_security_group;grStroke=0;strokeColor=#147EBA;fillColor=#E6F2F8;verticalAlign=top;align=left;spacingLeft=30;fontColor=#147EBA;dashed=0;" parent="0qceyOk1GAlapzXxqgbH-4" vertex="1">
                    <mxGeometry x="30" y="240" width="270" height="130" as="geometry"/>
                </mxCell>
                <mxCell id="0qceyOk1GAlapzXxqgbH-21" value="Private subnet&lt;br&gt;" style="points=[[0,0],[0.25,0],[0.5,0],[0.75,0],[1,0],[1,0.25],[1,0.5],[1,0.75],[1,1],[0.75,1],[0.5,1],[0.25,1],[0,1],[0,0.75],[0,0.5],[0,0.25]];outlineConnect=0;gradientColor=none;html=1;whiteSpace=wrap;fontSize=12;fontStyle=0;container=1;pointerEvents=0;collapsible=0;recursiveResize=0;shape=mxgraph.aws4.group;grIcon=mxgraph.aws4.group_security_group;grStroke=0;strokeColor=#147EBA;fillColor=#E6F2F8;verticalAlign=top;align=left;spacingLeft=30;fontColor=#147EBA;dashed=0;" parent="0qceyOk1GAlapzXxqgbH-4" vertex="1">
                    <mxGeometry x="30" y="370" width="270" height="130" as="geometry"/>
                </mxCell>
                <mxCell id="0qceyOk1GAlapzXxqgbH-22" value="Internet gateway" style="sketch=0;outlineConnect=0;fontColor=#232F3E;gradientColor=none;fillColor=#4D27AA;strokeColor=none;dashed=0;verticalLabelPosition=bottom;verticalAlign=top;align=center;html=1;fontSize=9;fontStyle=0;aspect=fixed;pointerEvents=1;shape=mxgraph.aws4.internet_gateway;" parent="0qceyOk1GAlapzXxqgbH-4" vertex="1">
                    <mxGeometry x="295.5" y="-30" width="49" height="49" as="geometry"/>
                </mxCell>
                <mxCell id="0qceyOk1GAlapzXxqgbH-28" style="edgeStyle=none;html=1;fontSize=9;strokeColor=#FF3333;strokeWidth=3;fillColor=#1ba1e2;startArrow=classic;startFill=1;endArrow=none;endFill=0;" parent="0qceyOk1GAlapzXxqgbH-4" edge="1">
                    <mxGeometry relative="1" as="geometry">
                        <mxPoint x="440" y="453" as="sourcePoint"/>
                        <mxPoint x="440" y="350" as="targetPoint"/>
                        <Array as="points">
                            <mxPoint x="320" y="453"/>
                            <mxPoint x="320" y="350"/>
                        </Array>
                    </mxGeometry>
                </mxCell>
                <mxCell id="0qceyOk1GAlapzXxqgbH-29" style="edgeStyle=none;html=1;fontSize=9;strokeColor=#FF3333;strokeWidth=3;fillColor=#1ba1e2;startArrow=classic;startFill=1;endArrow=none;endFill=0;exitX=0.586;exitY=0.867;exitDx=0;exitDy=0;exitPerimeter=0;" parent="0qceyOk1GAlapzXxqgbH-4" source="0qceyOk1GAlapzXxqgbH-5" edge="1">
                    <mxGeometry relative="1" as="geometry">
                        <mxPoint x="440" y="453" as="sourcePoint"/>
                        <mxPoint x="190" y="350" as="targetPoint"/>
                        <Array as="points">
                            <mxPoint x="320" y="453"/>
                            <mxPoint x="320" y="350"/>
                        </Array>
                    </mxGeometry>
                </mxCell>
                <mxCell id="0qceyOk1GAlapzXxqgbH-30" value="Internet" style="sketch=0;outlineConnect=0;fontColor=#232F3E;gradientColor=none;fillColor=#232F3D;strokeColor=none;dashed=0;verticalLabelPosition=bottom;verticalAlign=top;align=center;html=1;fontSize=9;fontStyle=0;aspect=fixed;pointerEvents=1;shape=mxgraph.aws4.internet;" parent="0qceyOk1GAlapzXxqgbH-1" vertex="1">
                    <mxGeometry x="310.5" y="-118.31" width="59" height="36.31" as="geometry"/>
                </mxCell>
                <mxCell id="0qceyOk1GAlapzXxqgbH-31" style="edgeStyle=none;html=1;fontSize=9;strokeColor=#B3B3B3;strokeWidth=3;" parent="0qceyOk1GAlapzXxqgbH-1" source="0qceyOk1GAlapzXxqgbH-22" edge="1">
                    <mxGeometry relative="1" as="geometry">
                        <mxPoint x="340" y="-60" as="targetPoint"/>
                    </mxGeometry>
                </mxCell>
            </root>
        </mxGraphModel>
    </diagram>
</mxfile>